<?xml version="1.0" encoding="UTF-8" standalone="no"?>
<!-- Created with Inkscape (http://www.inkscape.org/) -->

<svg
   xmlns:dc="http://purl.org/dc/elements/1.1/"
   xmlns:cc="http://creativecommons.org/ns#"
   xmlns:rdf="http://www.w3.org/1999/02/22-rdf-syntax-ns#"
   xmlns:svg="http://www.w3.org/2000/svg"
   xmlns="http://www.w3.org/2000/svg"
   xmlns:sodipodi="http://sodipodi.sourceforge.net/DTD/sodipodi-0.dtd"
   xmlns:inkscape="http://www.inkscape.org/namespaces/inkscape"
   width="400"
   height="60"
   viewBox="0 0 105.83333 15.875"
   version="1.1"
   id="svg8"
   inkscape:export-filename="/home/hiro/Desktop/logo.png"
   inkscape:export-xdpi="96"
   inkscape:export-ydpi="96"
   inkscape:version="0.92.5 (2060ec1f9f, 2020-04-08)"
   sodipodi:docname="logo.svg">
  <defs
     id="defs2" />
  <sodipodi:namedview
     id="base"
     pagecolor="#ffffff"
     bordercolor="#666666"
     borderopacity="1.0"
     inkscape:pageopacity="0.0"
     inkscape:pageshadow="2"
     inkscape:zoom="1.979899"
     inkscape:cx="19.071743"
     inkscape:cy="73.778503"
     inkscape:document-units="px"
     inkscape:current-layer="layer1"
     showgrid="false"
     units="px"
     width="400px"
     borderlayer="true"
     inkscape:snap-page="true"
     inkscape:window-width="1920"
     inkscape:window-height="999"
     inkscape:window-x="0"
     inkscape:window-y="40"
     inkscape:window-maximized="1" />
  <metadata
     id="metadata5">
    <rdf:RDF>
      <cc:Work
         rdf:about="">
        <dc:format>image/svg+xml</dc:format>
        <dc:type
           rdf:resource="http://purl.org/dc/dcmitype/StillImage" />
        <dc:title />
      </cc:Work>
    </rdf:RDF>
  </metadata>
  <g
     inkscape:label="レイヤー 1"
     inkscape:groupmode="layer"
     id="layer1"
     transform="translate(0,-281.125)">
    <g
       aria-label="My   Bookmarks"
       style="font-style:normal;font-variant:normal;font-weight:normal;font-stretch:normal;font-size:13.66131878px;line-height:1.25;font-family:'棘丸ゴシック';-inkscape-font-specification:'棘丸ゴシック, Normal';font-variant-ligatures:normal;font-variant-caps:normal;font-variant-numeric:normal;font-feature-settings:normal;text-align:start;letter-spacing:0px;word-spacing:0px;writing-mode:lr-tb;text-anchor:start;fill:#000000;fill-opacity:1;stroke:none;stroke-width:0.34153444"
       id="text817">
      <path
         d="m 1.8665128,293.6727 q 0.8004679,-0.80047 0.8004679,-1.60094 v -6.77062 q 0,-0.80047 -0.8004679,-1.60094 h 1.9077818 l 3.548741,6.01018 h 0.033353 l 3.5487405,-6.01018 h 1.947806 q -0.800468,0.80047 -0.800468,1.60094 v 6.77062 q 0,0.80047 0.800468,1.60094 h -2.694909 q 0.800468,-0.80047 0.800468,-1.60094 v -6.54382 h -0.02668 l -3.0884722,5.18303 H 6.8360843 l -3.088472,-5.18303 h -0.026682 v 6.54382 q 0,0.80047 0.8004679,1.60094 z"
         style="font-style:normal;font-variant:normal;font-weight:normal;font-stretch:normal;font-size:13.66131878px;font-family:'棘丸ゴシック';-inkscape-font-specification:'棘丸ゴシック, Normal';font-variant-ligatures:normal;font-variant-caps:normal;font-variant-numeric:normal;font-feature-settings:normal;text-align:start;writing-mode:lr-tb;text-anchor:start;stroke-width:0.34153444"
         id="path819" />
      <path
         d="m 14.80074,286.56855 2.11457,5.85008 h 0.02668 l 2.334698,-5.85008 h 1.06729 l -4.235809,10.11257 h -1.06729 l 1.340783,-3.04844 -2.688238,-7.06413 z"
         style="font-style:normal;font-variant:normal;font-weight:normal;font-stretch:normal;font-size:13.66131878px;font-family:'棘丸ゴシック';-inkscape-font-specification:'棘丸ゴシック, Normal';font-variant-ligatures:normal;font-variant-caps:normal;font-variant-numeric:normal;font-feature-settings:normal;text-align:start;writing-mode:lr-tb;text-anchor:start;stroke-width:0.34153444"
         id="path821" />
      <path
         d="m 41.042747,290.71097 q 0,-1.33412 -1.420831,-1.74769 -0.747103,-0.22013 -1.967816,-0.22013 h -0.1134 q -0.800468,0 -0.800468,0.80047 v 3.25523 q 0.680398,0.12008 1.460854,0.12008 1.454183,0 2.147922,-0.54699 0.693739,-0.55366 0.693739,-1.66097 z m 1.067291,0.0934 q 0,3.00175 -4.015681,3.00175 -1.18069,0 -2.448098,-0.21346 v -9.8124 q 1.247396,-0.22013 2.334698,-0.22013 3.675482,0 3.675482,2.42142 0,1.14066 -0.953891,1.79438 -0.460269,0.32019 -1.093973,0.46027 v 0.0267 q 1.214043,0.18678 1.854418,0.85383 0.647045,0.66039 0.647045,1.68766 z M 37.6541,287.86931 q 2.981742,0 2.981742,-1.75436 0,-0.83382 -0.607021,-1.2474 -0.607021,-0.41357 -1.961146,-0.41357 -0.713751,0 -1.327443,0.12007 v 2.49479 q 0,0.80047 0.800468,0.80047 z"
         style="font-style:normal;font-variant:normal;font-weight:normal;font-stretch:normal;font-size:13.66131878px;font-family:'棘丸ゴシック';-inkscape-font-specification:'棘丸ゴシック, Normal';font-variant-ligatures:normal;font-variant-caps:normal;font-variant-numeric:normal;font-feature-settings:normal;text-align:start;writing-mode:lr-tb;text-anchor:start;stroke-width:0.34153444"
         id="path823" />
      <path
         d="m 48.306993,293.35918 q -0.747104,0.44693 -1.76103,0.44693 -1.013926,0 -1.7677,-0.44693 -0.747103,-0.44693 -1.167349,-1.27408 -0.413575,-0.82715 -0.413575,-1.82106 0,-1.84108 0.913868,-2.83499 0.920538,-0.99391 2.434756,-0.99391 1.013926,0 1.76103,0.45359 0.753774,0.44693 1.167349,1.27408 0.413575,0.82715 0.413575,1.96115 0,1.13399 -0.413575,1.96114 -0.413575,0.82715 -1.167349,1.27408 z m -1.76103,-6.11024 q -1.454183,0 -2.041193,1.32745 -0.280164,0.64037 -0.280164,1.54757 0,1.82106 1.093973,2.52814 0.520304,0.3402 1.227384,0.3402 0.70708,0 1.227384,-0.3402 1.093973,-0.70708 1.093973,-2.52814 0,-1.82774 -1.093973,-2.53482 -0.520304,-0.3402 -1.227384,-0.3402 z"
         style="font-style:normal;font-variant:normal;font-weight:normal;font-stretch:normal;font-size:13.66131878px;font-family:'棘丸ゴシック';-inkscape-font-specification:'棘丸ゴシック, Normal';font-variant-ligatures:normal;font-variant-caps:normal;font-variant-numeric:normal;font-feature-settings:normal;text-align:start;writing-mode:lr-tb;text-anchor:start;stroke-width:0.34153444"
         id="path825" />
      <path
         d="m 56.091542,293.35918 q -0.747103,0.44693 -1.761029,0.44693 -1.013926,0 -1.7677,-0.44693 -0.747103,-0.44693 -1.167349,-1.27408 -0.413575,-0.82715 -0.413575,-1.82106 0,-1.84108 0.913867,-2.83499 0.920539,-0.99391 2.434757,-0.99391 1.013926,0 1.761029,0.45359 0.753774,0.44693 1.167349,1.27408 0.413575,0.82715 0.413575,1.96115 0,1.13399 -0.413575,1.96114 -0.413575,0.82715 -1.167349,1.27408 z m -1.761029,-6.11024 q -1.454183,0 -2.041193,1.32745 -0.280164,0.64037 -0.280164,1.54757 0,1.82106 1.093973,2.52814 0.520304,0.3402 1.227384,0.3402 0.70708,0 1.227384,-0.3402 1.093973,-0.70708 1.093973,-2.52814 0,-1.82774 -1.093973,-2.53482 -0.520304,-0.3402 -1.227384,-0.3402 z"
         style="font-style:normal;font-variant:normal;font-weight:normal;font-stretch:normal;font-size:13.66131878px;font-family:'棘丸ゴシック';-inkscape-font-specification:'棘丸ゴシック, Normal';font-variant-ligatures:normal;font-variant-caps:normal;font-variant-numeric:normal;font-feature-settings:normal;text-align:start;writing-mode:lr-tb;text-anchor:start;stroke-width:0.34153444"
         id="path827" />
      <path
         d="m 61.107807,283.42671 q -0.800468,0.80047 -0.800468,1.60094 v 4.53598 h 0.02668 l 3.582093,-2.99508 h 1.300761 l -4.062375,3.3753 4.12908,3.72885 h -1.30076 l -3.648799,-3.34863 h -0.02668 v 1.74769 q 0,0.80047 0.800468,1.60094 h -2.59485 q 0.800468,-0.80047 0.800468,-1.60094 v -7.04411 q 0,-0.80047 -0.800468,-1.60094 z"
         style="font-style:normal;font-variant:normal;font-weight:normal;font-stretch:normal;font-size:13.66131878px;font-family:'棘丸ゴシック';-inkscape-font-specification:'棘丸ゴシック, Normal';font-variant-ligatures:normal;font-variant-caps:normal;font-variant-numeric:normal;font-feature-settings:normal;text-align:start;writing-mode:lr-tb;text-anchor:start;stroke-width:0.34153444"
         id="path829" />
      <path
         d="m 71.720677,287.79593 q 0.720421,-1.36079 2.101228,-1.36079 0.687068,0 1.167349,0.27349 0.94055,0.55366 0.94055,2.45477 v 2.90836 q 0,0.80047 0.800468,1.60094 h -2.581509 q 0.800468,-0.80047 0.800468,-1.60094 v -2.63487 q 0,-1.61428 -0.58701,-1.9945 -0.306846,-0.19345 -0.70708,-0.19345 -0.733762,0 -1.234055,0.65372 -0.493621,0.65371 -0.493621,1.60094 v 2.56816 q 0,0.80047 0.800467,1.60094 h -2.581509 q 0.800468,-0.80047 0.800468,-1.60094 v -2.63487 q 0,-1.61428 -0.600351,-1.9945 -0.306846,-0.19345 -0.700409,-0.19345 -0.713751,0 -1.227384,0.71375 -0.506963,0.71376 -0.506963,1.72101 v 2.38806 q 0,0.80047 0.800468,1.60094 h -2.59485 q 0.800468,-0.80047 0.800468,-1.60094 v -3.90228 q 0,-0.80047 -0.800468,-1.60093 h 1.754359 l 0.01334,1.17402 h 0.02668 q 0.747103,-1.30743 1.874429,-1.30743 0.760444,0 1.207372,0.36021 0.446928,0.35354 0.70041,1.00058 z"
         style="font-style:normal;font-variant:normal;font-weight:normal;font-stretch:normal;font-size:13.66131878px;font-family:'棘丸ゴシック';-inkscape-font-specification:'棘丸ゴシック, Normal';font-variant-ligatures:normal;font-variant-caps:normal;font-variant-numeric:normal;font-feature-settings:normal;text-align:start;writing-mode:lr-tb;text-anchor:start;stroke-width:0.34153444"
         id="path831" />
      <path
         d="m 78.898209,290.77767 q -0.34687,0.40691 -0.34687,0.98058 0,0.57367 0.380223,0.92721 0.380222,0.34686 0.933879,0.34686 1.027267,0 1.721006,-0.66705 0.693739,-0.67373 0.693739,-1.66764 v -0.76712 h -0.727092 q -1.934464,0 -2.654885,0.84716 z m -0.960562,-3.70216 q 1.194032,-0.64037 2.568168,-0.64037 1.947805,0 2.488121,1.11398 0.280164,0.57367 0.280164,1.52089 v 2.68824 q 0,0.94722 0.206787,1.91445 h -0.95389 q -0.126741,-0.60702 -0.140082,-1.25407 h -0.02668 q -0.366881,0.64705 -1.06062,1.0206 -0.693738,0.36688 -1.460853,0.36688 -0.767116,0 -1.247396,-0.24681 -1.027267,-0.5203 -1.027267,-1.80105 0,-0.78046 0.453598,-1.36747 0.953891,-1.22738 3.5354,-1.22738 h 0.727092 v -0.0667 q 0,-0.69374 -0.166765,-1.10064 -0.166764,-0.40691 -0.560327,-0.57367 -0.386893,-0.17344 -1.047279,-0.17344 -1.274078,0 -2.394733,0.63371 z"
         style="font-style:normal;font-variant:normal;font-weight:normal;font-stretch:normal;font-size:13.66131878px;font-family:'棘丸ゴシック';-inkscape-font-specification:'棘丸ゴシック, Normal';font-variant-ligatures:normal;font-variant-caps:normal;font-variant-numeric:normal;font-feature-settings:normal;text-align:start;writing-mode:lr-tb;text-anchor:start;stroke-width:0.34153444"
         id="path833" />
      <path
         d="m 84.594872,286.56855 h 1.7677 l 0.02668,1.51421 h 0.02668 q 1.207372,-1.64762 3.388647,-1.64762 v 0.8605 q -1.514218,0 -2.454768,0.83382 -0.933879,0.83382 -0.933879,2.15459 v 1.78771 q 0,0.80047 0.800467,1.60094 h -2.621532 q 0.800468,-0.80047 0.800468,-1.60094 v -3.90228 q 0,-0.80047 -0.800468,-1.60093 z"
         style="font-style:normal;font-variant:normal;font-weight:normal;font-stretch:normal;font-size:13.66131878px;font-family:'棘丸ゴシック';-inkscape-font-specification:'棘丸ゴシック, Normal';font-variant-ligatures:normal;font-variant-caps:normal;font-variant-numeric:normal;font-feature-settings:normal;text-align:start;writing-mode:lr-tb;text-anchor:start;stroke-width:0.34153444"
         id="path835" />
      <path
         d="m 93.440045,283.42671 q -0.800468,0.80047 -0.800468,1.60094 v 4.53598 h 0.02668 l 3.582094,-2.99508 h 1.30076 l -4.062375,3.3753 4.129081,3.72885 h -1.300761 l -3.648799,-3.34863 h -0.02668 v 1.74769 q 0,0.80047 0.800468,1.60094 h -2.594851 q 0.800468,-0.80047 0.800468,-1.60094 v -7.04411 q 0,-0.80047 -0.800468,-1.60094 z"
         style="font-style:normal;font-variant:normal;font-weight:normal;font-stretch:normal;font-size:13.66131878px;font-family:'棘丸ゴシック';-inkscape-font-specification:'棘丸ゴシック, Normal';font-variant-ligatures:normal;font-variant-caps:normal;font-variant-numeric:normal;font-feature-settings:normal;text-align:start;writing-mode:lr-tb;text-anchor:start;stroke-width:0.34153444"
         id="path837" />
      <path
         d="m 103.78609,287.78259 q -1.06729,-0.53365 -2.03452,-0.53365 -1.781042,0 -1.781042,1.09398 0,0.64037 0.653712,0.94055 0.36021,0.17343 1.16735,0.31351 0.80714,0.14009 1.38081,0.42025 1.0873,0.54699 1.0873,1.79438 0,1.24073 -1.22738,1.74769 -0.59368,0.24681 -1.38081,0.24681 -1.50755,0 -2.674896,-0.6804 l 0.226799,-0.80714 q 1.120657,0.67373 2.394737,0.67373 0.80046,0 1.22071,-0.31352 0.42025,-0.31351 0.42025,-0.88051 0,-0.72709 -0.69374,-1.03394 -0.36688,-0.16009 -1.14067,-0.2935 -2.428086,-0.42025 -2.428086,-2.12791 0,-1.18736 1.194026,-1.67432 0.58701,-0.23346 1.34079,-0.23346 1.38081,0 2.48812,0.54031 z"
         style="font-style:normal;font-variant:normal;font-weight:normal;font-stretch:normal;font-size:13.66131878px;font-family:'棘丸ゴシック';-inkscape-font-specification:'棘丸ゴシック, Normal';font-variant-ligatures:normal;font-variant-caps:normal;font-variant-numeric:normal;font-feature-settings:normal;text-align:start;writing-mode:lr-tb;text-anchor:start;stroke-width:0.34153444"
         id="path839" />
    </g>
    <g
       transform="matrix(0.3279968,0,0,0.3279968,22.33059,197.03905)"
       id="layer1-3"
       inkscape:label="レイヤー 1">
      <path
         inkscape:transform-center-y="-1.7001895"
         d="m 16.933333,263.13332 5.232687,10.60258 11.700646,1.70021 -8.466667,8.25296 1.998708,11.65336 L 16.933332,289.84046 6.4679567,295.34243 8.466666,283.68907 -4.086729e-7,275.43611 11.700645,273.7359 Z"
         inkscape:randomized="0"
         inkscape:rounded="0"
         inkscape:flatsided="false"
         sodipodi:arg2="-0.9424778"
         sodipodi:arg1="-1.5707963"
         sodipodi:r2="8.90238"
         sodipodi:r1="17.80476"
         sodipodi:cy="280.93808"
         sodipodi:cx="16.933332"
         sodipodi:sides="5"
         id="path817"
         style="opacity:1;fill:#2a7fff;fill-opacity:1;stroke:none;stroke-width:2.00579524;stroke-linejoin:miter;stroke-miterlimit:4;stroke-dasharray:none;stroke-dashoffset:0;stroke-opacity:1"
         sodipodi:type="star" />
    </g>
  </g>
</svg>
