<?xml version="1.0" encoding="UTF-8" standalone="no"?>
<!-- Created with Inkscape (http://www.inkscape.org/) -->

<svg
   xmlns:dc="http://purl.org/dc/elements/1.1/"
   xmlns:cc="http://creativecommons.org/ns#"
   xmlns:rdf="http://www.w3.org/1999/02/22-rdf-syntax-ns#"
   xmlns:svg="http://www.w3.org/2000/svg"
   xmlns="http://www.w3.org/2000/svg"
   xmlns:sodipodi="http://sodipodi.sourceforge.net/DTD/sodipodi-0.dtd"
   xmlns:inkscape="http://www.inkscape.org/namespaces/inkscape"
   width="96"
   height="96"
   viewBox="0 0 25.4 25.4"
   version="1.1"
   id="svg8"
   inkscape:version="0.92.3 (2405546, 2018-03-11)"
   sodipodi:docname="search.svg">
  <defs
     id="defs2" />
  <sodipodi:namedview
     id="base"
     pagecolor="#ffffff"
     bordercolor="#666666"
     borderopacity="1.0"
     inkscape:pageopacity="0.0"
     inkscape:pageshadow="2"
     inkscape:zoom="1.4142136"
     inkscape:cx="-100.35552"
     inkscape:cy="-55.440529"
     inkscape:document-units="mm"
     inkscape:current-layer="layer1"
     showgrid="false"
     units="px"
     borderlayer="true"
     width="128px"
     inkscape:snap-bbox="true"
     inkscape:snap-bbox-edge-midpoints="true"
     inkscape:snap-bbox-midpoints="true"
     inkscape:bbox-nodes="true"
     inkscape:snap-object-midpoints="true"
     inkscape:window-width="1662"
     inkscape:window-height="911"
     inkscape:window-x="188"
     inkscape:window-y="56"
     inkscape:window-maximized="0"
     inkscape:lockguides="false" />
  <metadata
     id="metadata5">
    <rdf:RDF>
      <cc:Work
         rdf:about="">
        <dc:format>image/svg+xml</dc:format>
        <dc:type
           rdf:resource="http://purl.org/dc/dcmitype/StillImage" />
        <dc:title />
      </cc:Work>
    </rdf:RDF>
  </metadata>
  <g
     inkscape:label="レイヤー 1"
     inkscape:groupmode="layer"
     id="layer1"
     transform="translate(0,-271.6)">
    <path
       style="fill:#1d1a1a;fill-opacity:1;stroke-width:0.03270607"
       d="m 21.553872,296.05544 c -0.04497,-0.0186 -1.348705,-1.30025 -2.897182,-2.84798 l -2.815419,-2.81407 -0.303879,0.18428 c -1.080817,0.65537 -2.2639,1.08218 -3.592938,1.29618 -0.538814,0.0867 -1.725919,0.1196 -2.3175148,0.0641 -2.2784622,-0.21369 -4.3641463,-1.18673 -5.963462,-2.78215 -1.5747937,-1.57098 -2.5462295,-3.57232 -2.81784236,-5.80534 -0.063795,-0.52441 -0.0547161,-1.79197 0.0164956,-2.30577 0.31600886,-2.27989 1.26556286,-4.17844 2.87132486,-5.74099 0.6020309,-0.58582 1.0962663,-0.96931 1.7780884,-1.37965 2.5641665,-1.54319 5.7732213,-1.80834 8.5526343,-0.70666 3.06994,1.21684 5.315349,3.89248 5.966626,7.10985 0.130463,0.6445 0.182115,1.19121 0.182115,1.92758 0,1.23922 -0.184332,2.28381 -0.603108,3.41778 -0.115727,0.31336 -0.536828,1.20127 -0.725946,1.53069 l -0.09015,0.15703 2.834011,2.83557 c 1.594498,1.59538 2.848967,2.87584 2.868205,2.92764 0.08536,0.22985 -0.02077,0.6189 -0.27189,0.99664 -0.173844,0.2615 -0.884457,1.01295 -1.312866,1.38832 -0.495047,0.43377 -1.070822,0.66578 -1.357302,0.54693 z m -10.514999,-7.32652 c 1.702123,-0.14635 3.277311,-0.94693 4.372528,-2.22229 1.700774,-1.98054 2.067289,-4.72873 0.941526,-7.05976 -0.345955,-0.71632 -0.757907,-1.28449 -1.345003,-1.85502 -0.902054,-0.87659 -1.960027,-1.43112 -3.249518,-1.70322 -0.395818,-0.0835 -0.480513,-0.0898 -1.226477,-0.0908 -0.6330694,-6.7e-4 -0.8665316,0.011 -1.1120072,0.0569 -1.8154692,0.33939 -3.3143802,1.31115 -4.3128334,2.79605 -1.8469013,2.74674 -1.3104795,6.46584 1.2393465,8.59257 1.306326,1.08958 3.0133916,1.63005 4.6924381,1.48569 z"
       id="path827"
       inkscape:connector-curvature="0" />
  </g>
</svg>
