<?xml version="1.0" encoding="UTF-8" standalone="no"?>
<!-- Created with Inkscape (http://www.inkscape.org/) -->

<svg
   xmlns:dc="http://purl.org/dc/elements/1.1/"
   xmlns:cc="http://creativecommons.org/ns#"
   xmlns:rdf="http://www.w3.org/1999/02/22-rdf-syntax-ns#"
   xmlns:svg="http://www.w3.org/2000/svg"
   xmlns="http://www.w3.org/2000/svg"
   xmlns:sodipodi="http://sodipodi.sourceforge.net/DTD/sodipodi-0.dtd"
   xmlns:inkscape="http://www.inkscape.org/namespaces/inkscape"
   width="96"
   height="96"
   viewBox="0 0 25.4 25.4"
   version="1.1"
   id="svg8"
   inkscape:version="0.92.3 (2405546, 2018-03-11)"
   sodipodi:docname="setting.svg">
  <defs
     id="defs2" />
  <sodipodi:namedview
     id="base"
     pagecolor="#ffffff"
     bordercolor="#666666"
     borderopacity="1.0"
     inkscape:pageopacity="0.0"
     inkscape:pageshadow="2"
     inkscape:zoom="2"
     inkscape:cx="151.19185"
     inkscape:cy="-8.209951"
     inkscape:document-units="mm"
     inkscape:current-layer="layer1"
     showgrid="false"
     units="px"
     borderlayer="true"
     width="128px"
     inkscape:snap-bbox="true"
     inkscape:snap-bbox-edge-midpoints="true"
     inkscape:snap-bbox-midpoints="true"
     inkscape:bbox-nodes="true"
     inkscape:snap-object-midpoints="true"
     inkscape:window-width="1662"
     inkscape:window-height="911"
     inkscape:window-x="188"
     inkscape:window-y="56"
     inkscape:window-maximized="0"
     inkscape:lockguides="false" />
  <metadata
     id="metadata5">
    <rdf:RDF>
      <cc:Work
         rdf:about="">
        <dc:format>image/svg+xml</dc:format>
        <dc:type
           rdf:resource="http://purl.org/dc/dcmitype/StillImage" />
        <dc:title />
      </cc:Work>
    </rdf:RDF>
  </metadata>
  <g
     inkscape:label="レイヤー 1"
     inkscape:groupmode="layer"
     id="layer1"
     transform="translate(0,-271.6)">
    <g
       id="g846"
       transform="matrix(0.49716209,0,0,0.49716209,-10.934078,143.07354)">
      <path
         style="fill:#5e5c5c;stroke-width:0.06467593"
         d="m 47.111032,307.44812 c -0.09782,-0.0531 -0.179674,-0.10284 -0.181892,-0.1106 -0.0022,-0.008 -0.358744,-1.05977 -0.79228,-2.33781 -0.645962,-1.90426 -0.817434,-2.34462 -0.949937,-2.43954 -0.179276,-0.12844 -2.3836,-0.63719 -2.760785,-0.63719 -0.226657,0 -0.33248,0.0929 -2.025234,1.77859 -1.691175,1.68408 -1.798757,1.77859 -2.02465,1.77859 -0.187793,0 -0.606832,-0.20725 -1.968869,-0.97375 -0.951665,-0.53556 -1.795784,-1.04651 -1.875821,-1.13544 -0.08004,-0.0889 -0.145521,-0.24136 -0.145521,-0.33875 0,-0.0974 0.249048,-1.15079 0.55344,-2.3409 0.304392,-1.1901 0.553569,-2.27534 0.553726,-2.41164 3.88e-4,-0.31777 -0.02618,-0.35317 -1.08795,-1.45066 -0.876264,-0.90574 -0.897341,-0.92235 -1.169912,-0.92163 -0.152665,3.9e-4 -1.245369,0.21901 -2.428232,0.4858 -1.182863,0.26679 -2.227775,0.48507 -2.322028,0.48507 -0.09425,0 -0.245736,-0.0655 -0.336632,-0.14552 -0.14036,-0.12359 -1.6806,-3.00502 -1.956894,-3.66089 -0.177599,-0.42159 -0.129857,-0.4827 1.738186,-2.22494 0.960422,-0.89574 1.787343,-1.70814 1.837602,-1.80533 0.124085,-0.23996 0.11964,-0.30515 -0.104593,-1.53427 -0.219179,-1.20142 -0.281637,-1.40147 -0.476877,-1.52744 -0.07458,-0.0481 -1.055537,-0.4228 -2.179906,-0.83264 -1.124369,-0.40983 -2.164843,-0.79338 -2.312165,-0.85232 l -0.267857,-0.10718 v -0.36583 c 0,-0.54647 0.183983,-2.54769 0.319587,-3.47621 0.102211,-0.69986 0.142577,-0.83941 0.283603,-0.98044 0.149636,-0.14963 0.379388,-0.20362 2.553814,-0.60006 1.420996,-0.25907 2.454065,-0.47801 2.548977,-0.5402 0.180146,-0.11803 0.193866,-0.14437 0.672657,-1.2912 0.346312,-0.8295 0.411187,-1.15903 0.277399,-1.40902 -0.03864,-0.0722 -0.659728,-0.90703 -1.380191,-1.85518 -0.720463,-0.94815 -1.34369,-1.78747 -1.38495,-1.86517 -0.184916,-0.34823 -0.128382,-0.44767 1.19077,-2.09445 1.546239,-1.93027 1.637756,-2.02692 1.917347,-2.02487 0.123172,9.1e-4 1.140702,0.38661 2.422877,0.9184 1.215789,0.50426 2.298192,0.91684 2.405338,0.91684 0.130168,0 0.373147,-0.12116 0.73223,-0.36513 1.000351,-0.67967 1.141275,-0.79736 1.211308,-1.01164 0.05108,-0.15629 0.02153,-0.78482 -0.119244,-2.53612 -0.176777,-2.19924 -0.181205,-2.34089 -0.07986,-2.5547 0.106361,-0.22439 0.12561,-0.23267 2.209263,-0.94968 2.168062,-0.74605 2.506047,-0.82175 2.755931,-0.61727 0.07511,0.0615 0.720242,0.95576 1.433635,1.98734 0.713394,1.03158 1.373356,1.94718 1.466583,2.03466 0.183999,0.17266 0.204987,0.1748 1.445122,0.14695 0.611112,-0.0137 0.677758,-0.0278 0.808449,-0.17061 0.07834,-0.0856 0.636133,-1.07792 1.239546,-2.20514 0.603412,-1.12721 1.167593,-2.10492 1.253733,-2.17268 0.08614,-0.0678 0.220234,-0.1232 0.297982,-0.1232 0.4094,0 4.561254,1.01375 4.7136,1.1509 0.06737,0.0607 0.145312,0.16993 0.17321,0.24284 0.0279,0.0729 0.0847,1.16432 0.126216,2.42535 0.05509,1.67311 0.100774,2.36387 0.169044,2.55581 0.08005,0.22508 0.165772,0.30563 0.593967,0.55822 0.275227,0.16235 0.593555,0.34231 0.707397,0.3999 0.428935,0.217 0.527667,0.17904 2.755684,-1.05946 1.549817,-0.86149 2.150711,-1.16416 2.311256,-1.16416 0.196282,0 0.354809,0.13708 1.664221,1.43904 1.819406,1.80905 1.985162,2.00203 1.98107,2.30636 -0.0025,0.18229 -0.250358,0.64765 -1.153965,2.16618 -1.271772,2.13723 -1.351028,2.29296 -1.290251,2.53512 0.07325,0.29186 0.67026,1.34491 0.864565,1.52498 0.229979,0.21314 0.199799,0.2092 2.907017,0.37895 2.212496,0.13872 2.446815,0.17816 2.582639,0.43475 0.05528,0.10443 0.737223,3.19283 0.919526,4.16437 0.142056,0.75706 0.231353,0.68002 -2.197723,1.89613 -1.159586,0.58055 -2.177549,1.12997 -2.262139,1.22095 -0.120614,0.12971 -0.165216,0.27424 -0.206709,0.66983 -0.0888,0.84655 -0.07231,1.49849 0.04275,1.69095 0.05645,0.0944 0.932606,0.78286 1.947016,1.52986 1.014409,0.74701 1.91411,1.44047 1.999334,1.54102 0.08522,0.10055 0.154953,0.26514 0.154953,0.36575 0,0.24434 -1.443816,4.17877 -1.595138,4.34678 -0.06533,0.0725 -0.17857,0.15476 -0.251654,0.18272 -0.07669,0.0293 -1.129671,-0.0563 -2.490023,-0.20254 -1.946917,-0.20929 -2.389884,-0.23984 -2.54527,-0.17552 -0.121385,0.0502 -0.393159,0.35465 -0.766063,0.85805 -0.700333,0.94541 -0.783094,1.09698 -0.740469,1.35611 0.01811,0.1101 0.399542,1.16377 0.847625,2.34149 0.448083,1.17772 0.814695,2.23037 0.814695,2.33921 0,0.3765 0.18484,0.21349 -2.863678,2.52557 -0.584414,0.44324 -0.736112,0.52866 -0.938887,0.52866 -0.218854,0 -0.421643,-0.14453 -2.132559,-1.51989 -1.662741,-1.33663 -1.918121,-1.51988 -2.118077,-1.51988 -0.125054,0 -0.656195,0.16234 -1.180314,0.36076 -1.235908,0.46789 -1.32688,0.51327 -1.451304,0.7239 -0.05754,0.0974 -0.325161,1.22473 -0.594707,2.50515 -0.460982,2.18979 -0.501068,2.33802 -0.675063,2.49627 -0.212994,0.19371 -0.305313,0.20967 -2.01541,0.34834 -1.538379,0.12474 -2.368464,0.12353 -2.603206,-0.004 z m 1.864369,-9.66847 c 4.715124,-0.45883 8.794173,-3.24132 10.889679,-7.42832 0.993468,-1.98504 1.436222,-3.87192 1.435399,-6.11721 -8.28e-4,-2.25101 -0.442514,-4.13335 -1.435399,-6.11721 -2.658142,-5.3112 -8.519265,-8.28757 -14.36725,-7.29593 -4.953818,0.84002 -9.015878,4.30382 -10.621149,9.05688 -1.657486,4.90766 -0.397726,10.30572 3.258542,13.96282 2.872062,2.87272 6.869709,4.32533 10.840178,3.93897 z"
         id="path850"
         inkscape:connector-curvature="0" />
      <path
         style="fill:#1d1a1a;stroke-width:0.06467593"
         d="m 47.323473,307.50533 c -0.220298,-0.0936 -0.358159,-0.42228 -1.069091,-2.54855 -0.624624,-1.86814 -0.779594,-2.26751 -0.939217,-2.42044 -0.164066,-0.15719 -0.363197,-0.22245 -1.404715,-0.46036 -1.334299,-0.3048 -1.553205,-0.32742 -1.822117,-0.18836 -0.09996,0.0517 -0.891605,0.82687 -1.759207,1.72263 -0.952844,0.98376 -1.663175,1.66498 -1.793937,1.72043 -0.201913,0.0856 -0.238461,0.0803 -0.543149,-0.079 -0.914016,-0.47793 -3.325341,-1.86772 -3.3958,-1.95721 -0.04446,-0.0565 -0.08085,-0.18806 -0.08085,-0.29241 0,-0.10436 0.247386,-1.15662 0.549746,-2.33837 0.30236,-1.18175 0.549745,-2.26934 0.549745,-2.41687 0,-0.23993 -0.04695,-0.32116 -0.445001,-0.76988 -0.24475,-0.27591 -0.721049,-0.77086 -1.058441,-1.0999 -0.564468,-0.55049 -0.633879,-0.59825 -0.869467,-0.59825 -0.140815,0 -1.224784,0.21828 -2.40882,0.48507 -1.184036,0.26679 -2.231348,0.48507 -2.32736,0.48507 -0.09601,0 -0.222768,-0.0364 -0.28168,-0.0808 -0.159419,-0.12032 -1.98724,-3.69946 -1.98724,-3.8913 0,-0.2104 0.04536,-0.25746 1.940278,-2.01273 1.539201,-1.42577 1.810926,-1.72651 1.810926,-2.00432 0,-0.32069 -0.447166,-2.50251 -0.542809,-2.64848 -0.05816,-0.0888 -0.170831,-0.20249 -0.250372,-0.25272 -0.182413,-0.11518 -4.432442,-1.67321 -4.607259,-1.68899 -0.122353,-0.011 -0.128055,-0.0498 -0.105377,-0.71731 0.01319,-0.3881 0.04957,-0.71534 0.08085,-0.7272 0.03128,-0.0119 0.05687,-0.11967 0.05687,-0.23959 0,-0.47614 0.336472,-2.85071 0.422815,-2.98391 0.05013,-0.0773 0.143457,-0.15722 0.207392,-0.17751 0.06394,-0.0203 1.159683,-0.22522 2.434996,-0.45539 1.315014,-0.23734 2.384922,-0.46186 2.471614,-0.51866 0.2204,-0.14441 0.29786,-0.28375 0.733552,-1.31953 0.393202,-0.93476 0.458511,-1.24788 0.316134,-1.51564 -0.04131,-0.0777 -0.696157,-0.96372 -1.455208,-1.96894 -1.11739,-1.47978 -1.380092,-1.86642 -1.380092,-2.03119 0,-0.16827 0.240925,-0.50335 1.391005,-1.93466 1.089975,-1.35651 1.430851,-1.7399 1.575125,-1.77159 0.145062,-0.0319 0.668727,0.16055 2.468588,0.90704 1.936634,0.80322 2.319599,0.94179 2.51519,0.91005 0.211647,-0.0344 1.23081,-0.6741 1.708187,-1.07227 0.378166,-0.31542 0.378537,-0.32188 0.169137,-2.95105 -0.184145,-2.31207 -0.186464,-2.39273 -0.07318,-2.5454 0.09325,-0.12568 0.557719,-0.30747 2.28921,-0.89599 2.031661,-0.69055 2.184065,-0.73265 2.355203,-0.65062 0.125866,0.0603 0.601829,0.69328 1.524862,2.02782 0.738036,1.06706 1.427007,2.00708 1.531048,2.08892 0.209141,0.16451 0.322963,0.17708 1.41381,0.15617 0.694075,-0.0133 0.735148,-0.0219 0.917984,-0.19179 0.108461,-0.10079 0.670754,-1.07469 1.297612,-2.24749 0.608417,-1.1383 1.154048,-2.10601 1.212514,-2.15047 0.05847,-0.0445 0.07891,-0.0827 0.04543,-0.085 -0.03348,-0.002 0.007,-0.0313 0.08999,-0.0646 0.14876,-0.0596 0.465249,-0.0185 0.528236,0.0687 0.01779,0.0246 0.920015,0.25695 2.004953,0.51631 1.084939,0.25936 2.032393,0.49876 2.105454,0.53199 0.07306,0.0332 0.166433,0.11421 0.207493,0.17996 0.04869,0.078 0.100605,0.91421 0.149272,2.40458 0.04104,1.25676 0.101459,2.39371 0.13427,2.52653 0.08418,0.34079 0.263393,0.51389 0.928349,0.8967 0.976117,0.56193 0.811192,0.60084 3.285213,-0.77511 1.238961,-0.68906 2.176624,-1.17154 2.276797,-1.17154 0.09367,0 0.221614,0.0275 0.284314,0.061 0.0627,0.0336 0.835593,0.80643 1.717539,1.71751 1.526383,1.57679 1.601893,1.66643 1.569318,1.86309 -0.01882,0.11364 -0.532795,1.04693 -1.142164,2.074 -1.355611,2.28483 -1.297871,2.17272 -1.293314,2.51119 0.0051,0.37889 0.706633,1.63823 1.011033,1.81494 0.174467,0.10127 0.577048,0.14413 2.606983,0.27751 1.320361,0.0868 2.452281,0.18537 2.51538,0.21914 0.0631,0.0338 0.148395,0.10197 0.189547,0.15156 0.04115,0.0496 0.268733,0.98978 0.505733,2.08932 0.237,1.09955 0.452927,2.0138 0.479836,2.03166 0.02691,0.0179 0.06873,0.13803 0.09293,0.26702 0.03663,0.19529 0.01868,0.25854 -0.107247,0.37796 -0.08319,0.0789 -1.097131,0.61747 -2.253213,1.19686 -1.156082,0.57939 -2.150874,1.1078 -2.210649,1.17424 -0.191443,0.21279 -0.237701,0.44271 -0.279856,1.391 -0.03765,0.84692 -0.03034,0.94576 0.08313,1.12443 0.06842,0.10774 0.950947,0.80253 1.961157,1.54398 1.01021,0.74144 1.902231,1.4189 1.982267,1.50546 0.08004,0.0866 0.145521,0.24 0.145521,0.34099 0,0.16552 -1.315993,3.88658 -1.488577,4.20906 -0.141467,0.26433 -0.283666,0.26423 -2.730674,-0.002 l -2.344828,-0.25495 -0.258967,0.12759 c -0.400353,0.19724 -1.577738,1.8457 -1.583129,2.21655 -9.31e-4,0.0642 0.381397,1.12647 0.849621,2.36067 0.468224,1.2342 0.851429,2.32366 0.851566,2.42102 1.3e-4,0.0974 -0.05235,0.23515 -0.116641,0.30619 -0.189783,0.20971 -3.250604,2.52087 -3.427744,2.58822 -0.08928,0.034 -0.213513,0.0435 -0.276073,0.0212 -0.06256,-0.0223 -0.908517,-0.67894 -1.879907,-1.45917 -0.97139,-0.78024 -1.844515,-1.45949 -1.940278,-1.50945 -0.09576,-0.05 -0.253712,-0.091 -0.350998,-0.0912 -0.224203,-5.2e-4 -2.366567,0.81016 -2.528634,0.95683 -0.221932,0.20085 -0.28388,0.4196 -0.75395,2.66236 -0.256958,1.22597 -0.491809,2.29378 -0.521891,2.3729 -0.03008,0.0791 -0.111134,0.17407 -0.180116,0.21098 -0.13454,0.072 -1.617347,0.26257 -2.050648,0.26354 -0.144066,3.2e-4 -0.289586,0.0266 -0.32338,0.0584 -0.07281,0.0685 -1.765102,0.15013 -1.902461,0.0917 z m 2.361554,-9.68954 c 2.281605,-0.33338 4.414274,-1.21938 6.287799,-2.61224 0.705304,-0.52435 2.123941,-1.935 2.659312,-2.64433 1.119718,-1.48355 1.916765,-3.13196 2.370624,-4.9028 0.29716,-1.15944 0.417818,-2.14774 0.417818,-3.4223 0,-2.22518 -0.45577,-4.1849 -1.420214,-6.10664 -0.732345,-1.45926 -1.412761,-2.39464 -2.617607,-3.59846 -1.260707,-1.25965 -2.522618,-2.14018 -4.017553,-2.80337 -1.91133,-0.8479 -3.526596,-1.18959 -5.623584,-1.18959 -1.363773,0 -2.152027,0.0947 -3.425071,0.41154 -3.770452,0.93837 -7.1665,3.71372 -8.886535,7.26235 -1.058065,2.1829 -1.485707,4.347 -1.356569,6.86495 0.163816,3.19409 1.489717,6.24073 3.74042,8.59467 2.41933,2.53031 5.384324,3.93804 8.989954,4.2683 0.54855,0.0502 2.172857,-0.0186 2.881206,-0.12208 z"
         id="path848"
         inkscape:connector-curvature="0" />
    </g>
  </g>
</svg>
