<?xml version="1.0" encoding="UTF-8" standalone="no"?>
<!-- Created with Inkscape (http://www.inkscape.org/) -->

<svg
   xmlns:dc="http://purl.org/dc/elements/1.1/"
   xmlns:cc="http://creativecommons.org/ns#"
   xmlns:rdf="http://www.w3.org/1999/02/22-rdf-syntax-ns#"
   xmlns:svg="http://www.w3.org/2000/svg"
   xmlns="http://www.w3.org/2000/svg"
   xmlns:xlink="http://www.w3.org/1999/xlink"
   xmlns:sodipodi="http://sodipodi.sourceforge.net/DTD/sodipodi-0.dtd"
   xmlns:inkscape="http://www.inkscape.org/namespaces/inkscape"
   width="128"
   height="128"
   viewBox="0 0 33.866667 33.866667"
   version="1.1"
   id="svg8"
   inkscape:version="0.92.5 (2060ec1f9f, 2020-04-08)"
   sodipodi:docname="wait_circle.svg">
  <defs
     id="defs2">
    <linearGradient
       inkscape:collect="always"
       id="linearGradient851">
      <stop
         style="stop-color:#cccccc;stop-opacity:1;"
         offset="0"
         id="stop847" />
      <stop
         style="stop-color:#cccccc;stop-opacity:0;"
         offset="1"
         id="stop849" />
    </linearGradient>
    <linearGradient
       inkscape:collect="always"
       xlink:href="#linearGradient851"
       id="linearGradient853"
       x1="11.330243"
       y1="290.44662"
       x2="6.9824157"
       y2="295.36301"
       gradientUnits="userSpaceOnUse"
       gradientTransform="matrix(-3.7795276,0,0,3.7795276,48.000008,-1074.5197)" />
  </defs>
  <sodipodi:namedview
     id="base"
     pagecolor="#ffffff"
     bordercolor="#666666"
     borderopacity="1.0"
     inkscape:pageopacity="0.0"
     inkscape:pageshadow="2"
     inkscape:zoom="4"
     inkscape:cx="52.361096"
     inkscape:cy="36.773348"
     inkscape:document-units="mm"
     inkscape:current-layer="layer1"
     showgrid="false"
     units="px"
     borderlayer="true"
     inkscape:snap-page="true"
     inkscape:snap-bbox="true"
     inkscape:bbox-paths="true"
     inkscape:bbox-nodes="true"
     inkscape:snap-bbox-edge-midpoints="true"
     inkscape:snap-bbox-midpoints="true"
     inkscape:snap-object-midpoints="true"
     inkscape:snap-center="true"
     inkscape:window-width="1920"
     inkscape:window-height="999"
     inkscape:window-x="0"
     inkscape:window-y="40"
     inkscape:window-maximized="1" />
  <metadata
     id="metadata5">
    <rdf:RDF>
      <cc:Work
         rdf:about="">
        <dc:format>image/svg+xml</dc:format>
        <dc:type
           rdf:resource="http://purl.org/dc/dcmitype/StillImage" />
        <dc:title></dc:title>
      </cc:Work>
    </rdf:RDF>
  </metadata>
  <g
     inkscape:label="レイヤー 1"
     inkscape:groupmode="layer"
     id="layer1"
     transform="translate(0,-263.13333)">
    <g
       id="g884"
       transform="matrix(-2.6666324,0,0,2.6678146,33.866524,-495.33146)">
      <path
         style="opacity:1;fill:url(#linearGradient853);fill-opacity:1;stroke:none;stroke-width:4.54667997;stroke-linejoin:miter;stroke-miterlimit:4;stroke-dasharray:none;stroke-dashoffset:0;stroke-opacity:1"
         d="M 23.433594,0.00585938 A 23.999982,23.999982 0 0 0 12,3.2148438 23.999982,23.999982 0 0 0 3.2148438,36 23.999982,23.999982 0 0 0 24,47.978516 v -4.191407 a 19.798989,19.798989 0 0 1 -0.0098,0 A 19.798989,19.798989 0 0 1 4.1914062,23.988281 19.798989,19.798989 0 0 1 23.990234,4.1894531 19.798989,19.798989 0 0 1 43.791016,23.988281 19.798989,19.798989 0 0 1 41.119141,33.884766 l 3.638671,2.099609 A 23.999982,23.999982 0 0 0 44.785156,12 23.999982,23.999982 0 0 0 23.433594,0.00585938 Z"
         id="path815"
         transform="matrix(-0.26458333,0,0,0.26458333,12.700002,284.3)"
         inkscape:connector-curvature="0" />
      <path
         style="opacity:1;fill:#cccccc;fill-opacity:1;stroke:none;stroke-width:4.54667997;stroke-linejoin:miter;stroke-miterlimit:4;stroke-dasharray:none;stroke-dashoffset:0;stroke-opacity:1"
         d="M 23.451172,0.00585938 A 23.999982,23.999982 0 0 0 12.017578,3.2148438 23.999982,23.999982 0 0 0 2.125,14.236328 l 3.6914062,1.941406 A 19.798989,19.798989 0 0 1 24,4.2011719 19.798989,19.798989 0 0 1 43.798828,24 19.798989,19.798989 0 0 1 41.134766,33.882812 l 3.640625,2.101563 A 23.999982,23.999982 0 0 0 44.802734,12 23.999982,23.999982 0 0 0 23.451172,0.00585938 Z"
         id="path815-9"
         transform="matrix(-0.26458333,0,0,0.26458333,12.700002,284.3)"
         inkscape:connector-curvature="0" />
      <ellipse
         style="opacity:1;fill:#cccccc;fill-opacity:1;stroke:none;stroke-width:0.39536533;stroke-linejoin:miter;stroke-miterlimit:4;stroke-dasharray:none;stroke-dashoffset:0;stroke-opacity:1"
         id="path886"
         cx="130.0768"
         cy="267.89496"
         transform="matrix(-0.91009723,0.41439479,0.44690387,0.89458199,0,0)"
         rx="0.56055433"
         ry="0.48379478" />
    </g>
  </g>
</svg>
